<?xml version="1.0" encoding="utf-8"?>
<!-- Generator: Adobe Illustrator 25.0.0, SVG Export Plug-In . SVG Version: 6.00 Build 0)  -->
<svg version="1.1" id="图层_1" xmlns="http://www.w3.org/2000/svg" xmlns:xlink="http://www.w3.org/1999/xlink" x="0px" y="0px"
	 viewBox="0 0 20 20" style="enable-background:new 0 0 20 20;" xml:space="preserve">
<style type="text/css">
	.st0{fill:#CC3100;}
</style>
<path class="st0" d="M16,14.7c-0.5,0-0.9-0.4-1-0.9c0-0.5,0.4-0.9,0.9-1c0,0,0,0,0.1,0c0.5,0,0.9-0.4,0.9-0.9l0,0V4
	c0-0.5-0.4-0.9-0.9-0.9l0,0H8C7.5,3.1,7.1,3.5,7.1,4l0,0c0,0.5-0.4,0.9-0.9,1s-0.9-0.4-1-0.9c0,0,0,0,0-0.1c0-1.5,1.2-2.7,2.7-2.7h8
	c1.5,0,2.7,1.2,2.7,2.7v8C18.7,13.5,17.5,14.7,16,14.7z"/>
<path class="st0" d="M11.8,18.8H4.1c-1.6,0-2.9-1.3-2.9-2.9c0,0,0,0,0,0V8.2c0-1.6,1.3-2.9,2.9-2.9c0,0,0,0,0,0h7.7
	c1.6,0,2.9,1.3,2.9,2.9c0,0,0,0,0,0v7.7C14.7,17.4,13.4,18.7,11.8,18.8C11.8,18.8,11.8,18.8,11.8,18.8z M4.1,7.1c-0.6,0-1,0.5-1,1
	c0,0,0,0,0,0v7.7c0,0.6,0.5,1,1,1c0,0,0,0,0,0h7.7c0.6,0,1-0.5,1-1c0,0,0,0,0,0V8.2c0-0.6-0.5-1-1-1c0,0,0,0,0,0L4.1,7.1z"/>
<g>
	<path class="st0" d="M11.1,9.9c0.2-0.2,0.6-0.2,0.9,0c0.2,0.2,0.3,0.5,0.1,0.8L12,10.8l-4.4,4.5c-0.2,0.2-0.6,0.2-0.8,0.1l-0.1-0.1
		l-2.5-2.6c-0.2-0.2-0.2-0.6,0-0.8c0,0,0,0,0,0c0.2-0.2,0.6-0.2,0.8,0l0.1,0.1L7.1,14L11.1,9.9L11.1,9.9z"/>
</g>
</svg>
