<?xml version="1.0" encoding="UTF-8"?>
<svg version="1.1" viewBox="0 0 20 20" xml:space="preserve" xmlns="http://www.w3.org/2000/svg">
<path d="m16.613 19.083h-13.2c-1.32 0-2.4-1.08-2.4-2.4v-13.2c0-1.32 1.08-2.4 2.4-2.4h13.2c1.32 0 2.4 1.08 2.4 2.4v13.2c0 1.32-1.08 2.4-2.4 2.4z" display="none" stroke-width="0"/>

<path d="m4.0002 4.0352h4v4h-4zm8 0h4v4h-4zm-8 8h4v4h-4zm8 0h4v4h-4zm-4-4h4v4h-4z" display="none" fill="#fff" stroke-width=".01227" p-id="6165"/><path d="m16.613 19.083h-13.2c-1.32 0-2.4-1.08-2.4-2.4v-13.2c0-1.32 1.08-2.4 2.4-2.4h13.2c1.32 0 2.4 1.08 2.4 2.4v13.2c0 1.32-1.08 2.4-2.4 2.4z" fill="#fff" stroke-width="0"/><g transform="matrix(.01408 0 0 .01408 1.9387 2.8513)"><path d="m328.15 938.67 148.89 39.623v-51.812l12.16-12.188h85.077v103.61h-91.164l-112.43-48.754-42.51-30.478z" fill="#cdbdb2" p-id="8414"/><path d="m814.32 938.67-145.85 39.623v-51.812l-12.16-12.188h-85.077v103.61h91.164l112.41-48.754z" fill="#cdbdb2" p-id="8415"/><path d="m489.2 825.9-12.16 100.58 15.189-12.188h158.01l18.233 12.188-12.16-100.58-24.306-15.232-121.54 3.0436z" fill="#393939" p-id="8416"/><path d="m407.15 146.29 72.932 170.67 33.422 496.75h118.5l36.466-496.75 66.844-170.67z" fill="#f89c35" p-id="8417"/><path d="m88.121 521.14-85.077 246.86 212.69-12.188h136.73v-106.67l-6.0871-219.43-30.379 24.391z" fill="#f89d35" p-id="8418"/><path d="m249.16 548.57 249.16 6.1013-27.349 128-118.5-30.478z" fill="#d87c30" p-id="8419"/><path d="m249.16 551.62 103.31 97.522v97.522z" fill="#ea8d3a" p-id="8420"/><path d="m352.47 652.19 121.53 30.478 39.509 131.04-27.349 15.246-133.69-79.246z" fill="#f89d35" p-id="8421"/><path d="m352.47 749.71-24.32 188.96 161.05-112.77z" fill="#eb8f35" p-id="8422"/><path d="m498.32 554.67 15.189 259.04-45.582-132.57z" fill="#ea8e3a" p-id="8423"/><path d="m212.69 752.77 139.78-3.0578-24.32 188.96z" fill="#d87c30" p-id="8424"/><path d="m69.888 1021 258.28-82.29-115.47-185.9-209.65 15.232z" fill="#eb8f35" p-id="8425"/><path d="m480.09 316.96-130.66 109.71-100.27 121.9 249.16 9.1449z" fill="#e8821e" p-id="8426"/><path d="m328.15 938.67 161.05-112.77-12.16 97.536v54.855l-109.38-21.333-39.495-18.29zm486.17 0-158.01-112.77 12.16 97.536v54.855l109.37-21.333 36.494-18.29z" fill="#dfcec3" p-id="8427"/><path d="m431.46 609.52 33.422 70.101-118.49-30.478z" fill="#393939" p-id="8428"/><path d="m66.844 3.0436 413.24 313.91-69.888-170.67z" fill="#e88f35" p-id="8429"/><path d="m66.844 3.0436-54.699 167.62 30.393 182.86-21.276 12.188 30.393 27.435-24.32 21.333 33.422 30.478-21.262 18.276 48.626 60.956 227.88-70.087s167.11-134.1 164.08-137.14c-3.0436-3.072-413.24-313.91-413.24-313.91z" fill="#8e5a30" p-id="8430"/><path d="m1054.4 521.14 85.092 246.86-212.71-12.188h-136.73v-106.67l6.0871-219.43 30.379 24.391z" fill="#f89d35" p-id="8431"/><path d="m893.31 548.57-249.16 6.1013 27.349 128 118.5-30.478z" fill="#d87c30" p-id="8432"/><path d="m893.31 551.62-103.31 97.522v97.522z" fill="#ea8d3a" p-id="8433"/><path d="m790 652.19-121.53 30.478-39.509 131.04 27.349 15.246 133.69-79.246z" fill="#f89d35" p-id="8434"/><path d="m790 749.71 24.32 188.96-158.01-109.71z" fill="#eb8f35" p-id="8435"/><path d="m644.15 554.67-15.189 259.04 45.582-132.57z" fill="#ea8e3a" p-id="8436"/><path d="m929.78 752.77-139.78-3.0578 24.32 188.96z" fill="#d87c30" p-id="8437"/><path d="m1072.6 1021-258.28-82.29 115.47-185.9 209.66 15.232-66.844 252.96z" fill="#eb8f35" p-id="8438"/><path d="m662.39 316.96 130.66 109.71 100.27 121.9-249.16 9.1449z" fill="#e8821e" p-id="8439"/><path d="m711 609.52-33.422 70.101 118.51-30.478z" fill="#393939" p-id="8440"/><path d="m1075.6 3.0436-413.24 313.91 69.888-170.67z" fill="#e88f35" p-id="8441"/><path d="m1075.6 3.0436 54.699 167.62-30.393 182.86 21.276 12.188-30.393 27.435 24.32 21.333-33.422 30.478 21.262 18.276-48.612 60.956-227.91-70.073s-167.11-134.1-164.08-137.14c3.0578-3.0862 413.26-313.93 413.26-313.93z" fill="#8e5a30" p-id="8442"/></g></svg>
