<?xml version="1.0" standalone="no"?><!DOCTYPE svg PUBLIC "-//W3C//DTD SVG 1.1//EN" "http://www.w3.org/Graphics/SVG/1.1/DTD/svg11.dtd"><svg t="1732441294373" class="icon" viewBox="0 0 1024 1024" version="1.1" xmlns="http://www.w3.org/2000/svg" p-id="6053" width="20" height="20" xmlns:xlink="http://www.w3.org/1999/xlink"><path d="M493.088 893.472a36.16 36.16 0 0 1-27.136-11.008 34.176 34.176 0 0 1 0-51.36l337.376-319.2L465.92 192.672a34.176 34.176 0 0 1 0-51.36 38.976 38.976 0 0 1 54.4 0l391.68 370.56-391.68 370.56a43.136 43.136 0 0 1-27.232 11.04z" p-id="6054" fill="#CC3100"></path><path d="M150.848 893.472a36.16 36.16 0 0 1-27.136-11.008 34.176 34.176 0 0 1 0-51.36l337.376-319.2L123.712 192.672a34.176 34.176 0 0 1 0-51.36 38.976 38.976 0 0 1 54.4 0L569.664 512 177.984 882.592a43.136 43.136 0 0 1-27.136 11.008z" p-id="6055" fill="#CC3100"></path></svg>