<?xml version="1.0" standalone="no"?><!DOCTYPE svg PUBLIC "-//W3C//DTD SVG 1.1//EN" "http://www.w3.org/Graphics/SVG/1.1/DTD/svg11.dtd"><svg t="1732438320835" class="icon" viewBox="0 0 1024 1024" version="1.1" xmlns="http://www.w3.org/2000/svg" p-id="5940" width="25" height="25" xmlns:xlink="http://www.w3.org/1999/xlink"><path d="M748.13 553.8a227.68 227.68 0 0 0 0-83.6L711 460.82a203.94 203.94 0 0 0-22.09-53.37l19.62-32.91a241.1 241.1 0 0 0-59.09-59.1l-32.91 19.62A204.23 204.23 0 0 0 563.19 313l-9.39-37.1a227.68 227.68 0 0 0-83.6 0l-9.38 37.1a203.94 203.94 0 0 0-53.37 22.09l-32.91-19.62a241.28 241.28 0 0 0-59.1 59.09l19.62 32.92A203.94 203.94 0 0 0 313 460.82l-37.1 9.38a227.68 227.68 0 0 0 0 83.6l37.1 9.39a204.23 204.23 0 0 0 22.09 53.37l-19.62 32.91a241.1 241.1 0 0 0 59.1 59.09l32.91-19.62A203.94 203.94 0 0 0 460.82 711l9.38 37.1a227.68 227.68 0 0 0 83.6 0l9.39-37.1a204 204 0 0 0 53.36-22.09l32.91 19.62a241.28 241.28 0 0 0 59.1-59.09l-19.62-32.92A204 204 0 0 0 711 563.19zM512 616a104 104 0 1 1 104-104 104 104 0 0 1-104 104z" fill="#CC3100" p-id="5941"></path><path d="M177 707.85A388.09 388.09 0 0 1 733.57 193.4a25 25 0 1 0 28.6-41A438.11 438.11 0 0 0 131.8 729.63l-50-17.2-16.26 47.27 130.94 45.09 45.09-130.94-47.28-16.28zM942.18 311.57l16.28-47.27-130.94-45.09-45.09 130.94 47.28 16.28L847 316.15A388.09 388.09 0 0 1 290.43 830.6a25 25 0 1 0-28.6 41A438.25 438.25 0 0 0 512.17 950q18.21 0 36.51-1.52A438.12 438.12 0 0 0 892.2 294.37z" fill="#CC3100" p-id="5942"></path></svg>