<?xml version="1.0" standalone="no"?><!DOCTYPE svg PUBLIC "-//W3C//DTD SVG 1.1//EN" "http://www.w3.org/Graphics/SVG/1.1/DTD/svg11.dtd"><svg t="1732692865667" class="icon" viewBox="0 0 1024 1024" version="1.1" xmlns="http://www.w3.org/2000/svg" p-id="5956" xmlns:xlink="http://www.w3.org/1999/xlink" width="20" height="20"><path d="M416 896H192V192h128v32.106667c0 17.706667 14.293333 32 32 32s32-14.293333 32-32V192h256v32.106667c0 17.706667 14.293333 32 32 32s32-14.293333 32-32V192h128v192c0 17.706667 14.293333 32 32 32s32-14.293333 32-32V160c0-17.706667-14.293333-32-32-32H704V96c0-17.706667-14.293333-32-32-32s-32 14.293333-32 32v32H384V96c0-17.706667-14.293333-32-32-32s-32 14.293333-32 32v32H160c-17.706667 0-32 14.293333-32 32v768c0 17.706667 14.293333 32 32 32h256c17.706667 0 32-14.293333 32-32s-14.293333-32-32-32z" p-id="5957" fill="#CC3100"></path><path d="M768 352c0-17.706667-14.293333-32-32-32H288c-17.706667 0-32 14.293333-32 32s14.293333 32 32 32h448c17.706667 0 32-14.293333 32-32zM288 512c-17.706667 0-32 14.293333-32 32s14.293333 32 32 32h96c17.706667 0 32-14.293333 32-32s-14.293333-32-32-32h-96zM704 448c-141.12 0-256 114.88-256 256s114.88 256 256 256 256-114.88 256-256-114.88-256-256-256z m0 448c-105.92 0-192-86.08-192-192s86.08-192 192-192 192 86.08 192 192-86.08 192-192 192z" p-id="5958" fill="#CC3100"></path><path d="M843.2 764.16l-109.44-78.186667-15.253333-107.093333c-2.453333-17.493333-18.986667-29.653333-36.266667-27.2-17.493333 2.453333-29.653333 18.666667-27.2 36.266667l17.173333 120.64c1.28 9.28 6.506667 17.066667 13.653334 21.866666l120 85.76c5.653333 4.053333 12.16 5.973333 18.56 5.973334 10.026667 0 19.84-4.693333 26.026666-13.44 10.453333-14.4 7.146667-34.346667-7.253333-44.586667z" p-id="5959" fill="#CC3100"></path></svg>