<?xml version="1.0" standalone="no"?><!DOCTYPE svg PUBLIC "-//W3C//DTD SVG 1.1//EN" "http://www.w3.org/Graphics/SVG/1.1/DTD/svg11.dtd"><svg t="1735008668900" class="icon" viewBox="0 0 1024 1024" version="1.1" xmlns="http://www.w3.org/2000/svg" p-id="4439" width="20" height="20" xmlns:xlink="http://www.w3.org/1999/xlink"><path d="M922.4 256H160c-17.68 0-32-14.32-32-32s14.32-32 32-32h768c17.68 0 32-14.32 32-32 0-53.02-42.98-96-96-96H128C57.3 64 0 121.3 0 192v640c0 70.7 57.3 128 128 128h794.4c56.04 0 101.6-43.06 101.6-96V352c0-52.94-45.56-96-101.6-96zM832 672c-35.34 0-64-28.66-64-64s28.66-64 64-64 64 28.66 64 64-28.66 64-64 64z" p-id="4440" fill="#CC3100"></path></svg>